<svg xmlns="http://www.w3.org/2000/svg"><defs><font horiz-adv-x="1000"><font-face font-family="fontello" font-weight="400" ascent="850" descent="-150"/><glyph glyph-name="info-circled" unicode="" d="M454 810q190 2 326-130t140-322q2-190-131-327t-323-141q-190-2-327 131t-139 323q-4 190 130 327t324 139zm52-152q-42 0-65-24t-23-50q-2-28 15-44t49-16q38 0 61 22t23 54q0 58-60 58zm-120-594q30 0 84 26t106 78l-18 24q-48-36-72-36-14 0-4 38l42 160q26 96-22 96-30 0-89-29t-115-75l16-26q52 34 74 34 12 0 0-34l-36-152q-26-104 34-104z" horiz-adv-x="920"/><glyph glyph-name="record" unicode="" d="M350 700q146 0 248-102t102-248q0-144-102-247t-248-103-248 103-102 247q0 146 102 248t248 102z" horiz-adv-x="700"/><glyph glyph-name="facebook" unicode="" d="M500 644h-142q-14 0-25-15t-11-37v-102h178v-148h-178v-442h-170v442h-152v148h152v86q0 94 59 159t147 65h142v-156z" horiz-adv-x="500"/><glyph glyph-name="twitter" unicode="" d="M920 636q-36-54-94-98v-24q0-130-60-250t-186-203-290-83q-160 0-290 84 14-2 46-2 132 0 234 80-62 2-110 38t-66 94q10-4 34-4 26 0 50 6-66 14-108 66t-42 120v2q36-20 84-24-84 58-84 158 0 48 26 94 154-188 390-196-6 18-6 42 0 78 55 133t135 55q82 0 136-58 60 12 120 44-20-66-82-104 56 8 108 30z" horiz-adv-x="920"/><glyph glyph-name="phone" unicode="" d="M461 290q162 162 118 206l-8 8q-30 30-41 48t-4 54 49 88q20 24 37 39t35 16 30 1 29-13 24-18 26-25 21-22q48-48-6-194t-204-294q-150-150-295-205t-193-7q-2 2-23 22t-25 25-18 24-13 31 2 30 15 35 38 37q42 34 70 47t54 2 35-18 39-37q44-44 208 120z" horiz-adv-x="800"/><glyph glyph-name="mail" unicode="" d="M30 586q-32 18-28 40 2 14 26 14h846q38 0 20-32-8-14-24-22-14-6-192-102t-182-98q-16-10-46-10-28 0-46 10-4 2-182 98t-192 102zm850-100q20 10 20-10v-368q0-16-17-32t-33-16h-800q-16 0-33 16t-17 32v368q0 20 20 10l384-200q18-10 46-10t46 10z" horiz-adv-x="900"/><glyph glyph-name="gplus" unicode="" d="M48 572q0 58 25 102t56 65 69 34 56 15 26 2h230v-4q0-22-78-36-28 0-38-6 40-20 54-56t14-96q0-102-68-158-38-38-38-54 0-18 50-64 104-90 104-178 0-140-116-194-68-34-150-34h-4l-4 2q-2-2-4-2-24 0-54 5t-75 21-74 57-29 103q0 60 32 101t83 57 88 22 71 6h2q-16 22-24 47t-8 39l2 14h-14q-64 0-110 30-74 44-74 160zm370-452q-4 52-43 84t-103 32h-16q-64-2-114-46-46-42-42-94t53-80 119-24q68 4 109 40t37 88zm-60 500q-30 108-122 108-12 0-20-2-40-12-58-62-16-50-2-106 14-52 47-85t71-33q12 0 18 2 42 12 63 65t3 113zm388-174h150v-94h-150v-150h-94v150h-150v94h150v150h94v-150z" horiz-adv-x="896"/><glyph glyph-name="search" unicode="" d="M0 386q0 80 31 152t84 126 125 84 153 31 152-31 126-84 84-126 31-152q0-123-69-223l191-191q21-21 21-51 0-29-22-50t-50-21q-30 0-50 21l-191 191q-100-69-223-69-80 0-153 31t-125 83-84 126-31 153zm143 0q0-103 73-177t177-73 176 73 74 177-74 176-176 74-177-74-73-176z" horiz-adv-x="928.6"/><glyph glyph-name="download" unicode="" d="M968 198q18-10 27-32t3-40l-28-154q-4-20-22-33t-40-13h-816q-22 0-40 13t-22 33l-28 154q-10 48 32 72l158 108h98l-170-130h178q8 0 12-8l40-110h300l40 110q8 8 12 8h178l-170 130h98zm-208 322l-260-244-260 244h166v256h190v-256h164z" horiz-adv-x="1000"/><glyph glyph-name="print" unicode="" d="M66 526q-26 0-22 22 4 10 12 14 2 0 49 17t93 32 58 15h44v150h380v-150h46q12 0 57-15t92-32 49-17q18-8 12-26-4-10-20-10h-850zm860-56q20 0 37-19t17-41v-174q0-22-17-41t-37-19h-100l44-250h-760l44 250h-98q-20 0-38 19t-18 41v174q0 22 18 41t38 19h870zm-716-444h560l-70 324h-420z" horiz-adv-x="980"/><glyph glyph-name="book" unicode="" d="M682 594q18-8 18-28v-562q0-14-12-25t-28-11q-46 0-46 36v522q0 12-12 18l-404 216q-32 10-68-10-44-20-56-44l408-228q18-8 18-28v-550q0-22-18-28-6-4-16-4-14 0-20 4-8 6-202 127t-212 131q-26 18-26 34l-6 524q0 28 14 52 28 46 102 77t116 9z" horiz-adv-x="700"/><glyph glyph-name="down-open-big" unicode="" d="M63 570l370-356 372 356q22 26 48 0 26-22 0-48l-396-392q-22-22-48 0l-396 392q-26 26 0 48 24 24 50 0z" horiz-adv-x="866"/><glyph glyph-name="right-open-big" unicode="" d="M13-20l358 370-358 372q-26 26 0 48 26 26 48 0l392-394q24-26 0-50l-392-394q-22-26-48 0-26 22 0 48z" horiz-adv-x="465"/><glyph glyph-name="up-open-big" unicode="" d="M804 130l-372 358-370-358q-26-22-50 0-24 24 0 50l396 390q26 26 48 0l396-390q24-26 0-50-26-22-48 0z" horiz-adv-x="864"/><glyph glyph-name="cog" unicode="" d="M760 350q0-72 80-122-12-40-34-82-70 18-136-44-54-58-34-136-40-20-84-36-46 82-132 82t-132-82q-44 16-84 36 20 80-34 136-54 54-136 34-14 26-34 82 82 52 82 132 0 72-82 124 20 56 34 82 74-18 136 44 54 56 34 136 42 22 84 34 46-80 132-80t132 80q42-12 84-34-20-78 34-136 66-62 136-44 22-42 34-82-80-50-80-124zm-340-182q76 0 129 53t53 129-53 130-129 54-129-54-53-130 53-129 129-53z" horiz-adv-x="840"/><glyph glyph-name="check" unicode="" d="M249 0q-34 0-56 28l-180 236q-16 24-12 52t26 46 51 14 47-28l118-154 296 474q16 24 43 30t53-8q24-16 30-43t-8-53l-350-560q-20-32-56-32z" horiz-adv-x="667"/><glyph glyph-name="search-1" unicode="" d="M772 78q30-34 6-62l-46-46q-36-32-68 0l-190 190q-74-42-156-42-128 0-223 95t-95 223 90 219 218 91 224-95 96-223q0-88-46-162zm-678 358q0-88 68-156t156-68 151 63 63 153q0 88-68 155t-156 67-151-63-63-151z" horiz-adv-x="789"/><glyph glyph-name="popup" unicode="" d="M700 750q42 0 71-29t29-71v-400q0-40-29-70t-71-30h-400q-40 0-70 30t-30 70v402q0 40 29 69t71 29h400zm0-500v400h-400v-400h400zm-600 100v-300h300v-100h-300q-40 0-70 30t-30 70v300h100z" horiz-adv-x="800"/><glyph glyph-name="up-bold" unicode="" d="M760 336h-192v-350h-376v350h-192l380 380z" horiz-adv-x="760"/><glyph glyph-name="down-bold" unicode="" d="M760 366l-380-380-380 380h192v350h376v-350h192z" horiz-adv-x="760"/><glyph glyph-name="users" unicode="" d="M0 49q20 7 60 22t69 26 50 22q37 19 57 56t21 76q0 27-31 64-19 21-33 60-45 18-45 76 0 43 14 61-5 39-9 82-5 55 26 108t84 84 110 32q43 0 85-19t73-50 48-72 14-83q-4-55-8-82 14-19 14-61 0-58-45-76-15-41-32-60-32-37-32-64 0-39 20-76t58-56q29-15 92-38t113-43 66-38q18-17 28-47t10-51l1-21h-878v168zm705 299q0 34 12 50-5 32-7 67-4 45 21 89t69 72 90 27 89-27 69-72 22-89q-2-35-8-67 12-16 12-50 0-48-36-62-12-33-27-50-9-10-13-16t-9-16-4-20q0-32 17-62t47-46q17-9 42-19t60-22 50-19v-135h-254q0 4 0 11t-3 26-7 36-15 38-23 33q-23 25-53 44t-79 37q27 34 27 78 0 10-5 20t-8 16-12 16q-14 15-27 49-37 16-37 63z" horiz-adv-x="1201.2"/></font>
</defs>
</svg>
